PathFileType	4	(X/Y/Z)	Kaydara																																																																																																																									
DataRate	CameraRate	NumFrames	NumMarkers	Units	OrigDataRate	OrigDataStartFrame	OrigNumFrames																																																																																																																					
30	30	8	41	mm	30	112	154																																																																																																																					
Frame#	Time	PAIB_LFHD			PAIB_RFHD			PAIB_LBHD			PAIB_RBHD			PAIB_LFTShould			PAIB_RFTShould			PAIB_LRRShould			PAIB_RRRShould			PAIB_T10			PAIB_STRN			PAIB_TRUN			PAIB_LSHO			PAIB_LUPA			PAIB_LELB			PAIB_LFRM			PAIB_LWRA			PAIB_LWRB			PAIB_LFIN			PAIB_RSHO			PAIB_RUPA			PAIB_RELB			PAIB_RFRM			PAIB_RWRA			PAIB_RWRB			PAIB_RFIN			PAIB_LFWT			PAIB_RFWT			PAIB_LBWT			PAIB_RBWT			PAIB_LTHI			PAIB_LKNE			PAIB_LSHN			PAIB_LANK			PAIB_LHEE			PAIB_LTOE			PAIB_RTHI			PAIB_RKNE			PAIB_RSHN			PAIB_RANK			PAIB_RHEE			PAIB_RTOE		
		X1	Y1	Z1	X2	Y2	Z2	X3	Y3	Z3	X4	Y4	Z4	X5	Y5	Z5	X6	Y6	Z6	X7	Y7	Z7	X8	Y8	Z8	X9	Y9	Z9	X10	Y10	Z10	X11	Y11	Z11	X12	Y12	Z12	X13	Y13	Z13	X14	Y14	Z14	X15	Y15	Z15	X16	Y16	Z16	X17	Y17	Z17	X18	Y18	Z18	X19	Y19	Z19	X20	Y20	Z20	X21	Y21	Z21	X22	Y22	Z22	X23	Y23	Z23	X24	Y24	Z24	X25	Y25	Z25	X26	Y26	Z26	X27	Y27	Z27	X28	Y28	Z28	X29	Y29	Z29	X30	Y30	Z30	X31	Y31	Z31	X32	Y32	Z32	X33	Y33	Z33	X34	Y34	Z34	X35	Y35	Z35	X36	Y36	Z36	X37	Y37	Z37	X38	Y38	Z38	X39	Y39	Z39	X40	Y40	Z40	X41	Y41	Z41
																																																																																																																												
97	3.69	263.33927	1636.11969	187.16478	79.39737	1632.35672	174.75147	280.1947	1601.79703	63.47592	77.02237	1609.8053	61.41402	239.63108	1367.07306	182.84832	116.70839	1360.57129	178.75189	251.02594	1433.6293	36.86708	97.11526	1430.0943	44.8757	174.7197	1275.3701	-45.25481	187.09644	1296.85577	215.49038	188.26763	1194.2672	232.15206	369.29348	1382.10175	105.56252	443.72536	1161.98303	105.81179	468.39401	1079.16885	72.01374	485.71732	978.64243	148.29921	426.42288	903.5775	270.43573	463.31562	861.14365	211.62422	476.66389	850.98671	283.4321	-12.69166	1361.94855	115.65017	-75.17638	1199.91318	37.21453	-97.2469	1086.80946	7.70335	-119.59879	948.54965	10.00094	-67.28776	822.882	86.39728	-133.66201	823.15872	32.9253	-129.22872	774.25652	89.20633	300.8926	912.81189	166.80834	69.48247	918.69339	196.25893	204.17419	960.67818	-41.3731	61.78036	950.75661	-23.44073	242.24779	729.76456	-74.75965	272.58106	464.59629	-53.78294	235.69212	281.36616	-97.57483	209.64844	125.8874	-230.57562	151.41687	133.04774	-275.16998	192.4917	51.06555	-74.28988	18.86481	643.82217	92.16108	29.11358	456.30428	271.28183	90.13338	305.88501	370.08366	67.28256	89.32013	387.56889	135.29526	74.86939	338.2103	84.20061	131.93489	552.91451
98	3.723	261.43026	1632.12204	234.02384	77.42072	1628.96393	221.18084	278.27272	1596.8399	110.72639	75.2897	1605.60822	107.98594	236.73264	1363.13705	231.46877	113.8111	1356.86279	226.96108	248.98655	1428.97522	85.17138	95.20546	1425.52322	92.10926	173.17556	1270.41885	3.17466	184.03761	1293.30353	264.44132	184.97471	1190.88387	282.02734	366.78223	1377.44324	154.57675	440.48954	1157.1608	154.43058	465.15018	1074.46625	120.28854	483.76396	973.81111	196.08776	426.26591	898.32916	318.88523	462.31506	856.02318	259.39219	477.12284	846.06674	330.86632	-15.29693	1357.87155	163.50359	-77.1014	1194.92744	86.32228	-98.00164	1081.57623	56.54117	-119.8653	943.49968	58.2615	-67.00196	817.4202	133.54098	-133.56561	817.864	80.17855	-128.60602	768.26286	135.95388	299.15596	907.58545	219.00652	68.12002	916.25282	248.84272	202.44295	955.73601	10.89484	59.67848	947.05223	28.94025	239.73682	728.84827	-25.99365	275.88224	463.02299	-10.06596	239.49423	282.73935	-70.58577	217.2279	140.28605	-218.81941	160.23764	151.85298	-263.99929	193.41129	50.84044	-73.38242	19.86567	641.78345	151.19292	39.62984	455.22167	329.67026	104.56932	293.61961	411.27251	81.77274	76.22216	405.5529	145.48088	68.11673	355.40829	102.19705	101.18617	572.47227
99	3.757	258.96168	1633.36502	281.13295	75.01266	1630.93018	267.98002	275.92505	1597.17163	158.10774	73.01844	1606.85043	154.86696	233.91098	1364.04099	281.74921	110.51987	1357.55203	276.04383	246.73243	1428.8652	134.35933	92.72007	1424.56589	140.07462	171.30491	1268.66493	55.08179	180.77181	1294.59717	314.91884	181.72951	1192.44743	333.83125	364.19395	1376.60767	204.49642	436.18595	1155.43312	202.65802	459.87156	1072.68639	168.01661	480.37525	970.66124	240.48355	425.37025	891.81793	362.32117	461.00536	851.29272	300.64831	476.77334	839.54369	371.75591	-18.0232	1357.41608	211.6918	-79.41744	1193.09937	136.60245	-99.75795	1078.95462	109.00696	-120.72918	940.93201	112.18556	-66.11959	815.74562	187.68833	-133.51702	815.44472	135.28453	-127.28279	766.27457	191.50707	296.49433	906.10985	272.42167	66.30547	918.68393	302.65203	200.03761	956.43585	64.47844	56.12403	949.48387	82.18435	239.68719	725.76202	28.05173	278.15519	458.91212	47.12929	243.95018	285.26197	-33.83282	226.07838	161.44661	-198.59802	169.85258	179.00867	-242.96227	195.23239	50.92604	-71.59818	22.98524	644.14467	202.67744	44.62282	459.81182	382.9763	117.10142	292.17375	450.39158	86.60896	78.36834	419.66961	142.77041	73.64544	372.13676	123.24873	76.36844	603.8475
100	3.79	256.37272	1638.55637	328.37135	72.46143	1636.01227	314.75082	273.65595	1601.18057	205.74976	70.76278	1610.8548	201.87214	230.86792	1369.36356	331.36162	108.24266	1362.6033	325.1107	244.92397	1433.2225	183.91708	90.68804	1428.70392	188.86921	170.03246	1272.30751	105.56688	177.73357	1300.29999	364.98955	178.54811	1198.48427	385.5537	361.94557	1380.9613	255.00439	430.61447	1158.68652	250.31811	452.85137	1076.24184	213.77523	475.51472	971.54831	280.77124	423.59154	886.26968	399.95476	458.01811	849.32724	335.28511	475.27935	833.71414	405.2932	-20.21301	1361.78391	260.937	-80.75228	1195.4332	190.13119	-100.81444	1080.58395	165.20334	-121.25528	942.73071	171.50097	-65.31744	819.26041	248.75071	-133.43931	817.68761	197.29866	-125.91276	769.49944	254.23445	293.07613	910.33798	324.24427	63.18554	926.82693	354.52553	200.40234	958.93974	115.88924	56.53341	955.97572	132.67613	240.65218	718.20801	88.40021	287.28771	451.81271	125.46875	255.01848	289.43676	19.21101	238.27873	195.27796	-166.11368	180.33466	220.96735	-203.13946	197.17609	49.79058	-79.22212	18.39921	651.14197	251.78181	47.0876	464.47697	434.25087	118.50401	288.27709	481.39801	84.17424	76.66086	439.36607	140.48256	78.05387	380.8654	120.88436	58.37192	607.2575
101	3.823	254.21015	1644.02481	375.25021	70.31436	1640.7225	361.44543	271.79407	1606.1644	252.78767	68.81613	1615.02579	248.63205	228.86486	1375.38803	378.35587	106.45686	1368.30963	372.97523	242.65556	1439.2099	230.86596	88.65899	1434.30817	237.20205	167.31413	1278.01353	152.24418	176.2989	1306.19675	412.47402	177.29126	1204.52019	433.5582	359.5425	1387.8009	303.33479	425.2597	1164.84848	296.01019	446.40934	1082.61978	256.92863	470.28988	974.74289	317.90216	420.68577	881.93336	432.75814	454.3084	849.4767	365.24048	472.43481	828.78586	433.40622	-22.00374	1368.64975	311.12011	-82.21292	1200.27222	245.29882	-101.8774	1084.925	222.21008	-121.35979	946.88805	233.8657	-64.66221	827.12654	316.28874	-132.48478	822.95876	264.81573	-124.89789	777.21138	323.73825	290.65609	914.28398	371.4793	60.45604	933.27919	403.63209	199.04293	959.98642	162.81355	55.51683	960.23682	180.76832	242.60317	699.84261	153.20954	296.86707	441.572	215.05302	262.32227	296.14365	89.56974	248.95285	230.12203	-104.71348	196.85499	268.44643	-139.62903	192.2249	59.6346	-67.16857	13.00703	655.90446	298.10438	48.352	465.39856	469.16759	119.77321	284.43235	500.87601	84.93368	76.00469	444.42932	138.3424	80.51429	383.53779	128.53573	53.71868	610.56461
102	3.857	252.86003	1650.89233	421.1195	68.94343	1646.81107	407.93419	270.23357	1613.63159	298.41749	67.17561	1621.63345	295.00565	230.53759	1380.73746	423.32626	107.99714	1374.09607	420.54882	240.4471	1446.09222	275.961	86.27131	1440.89432	285.55616	163.19468	1285.10422	198.36582	178.44429	1311.19675	458.04924	179.96792	1209.31	478.05492	359.00253	1393.88412	346.12732	422.21607	1169.81995	338.60935	442.60216	1087.88506	298.06992	466.44936	977.96463	352.95475	416.82709	878.37585	462.07664	450.39154	849.92989	392.77084	468.17352	824.45099	459.22146	-22.13685	1374.82208	362.71988	-84.45196	1205.45517	300.87704	-104.28724	1089.40483	280.19947	-122.15414	951.32462	298.61996	-63.69418	837.57866	388.12279	-131.0829	829.06281	336.2196	-123.7811	787.47688	397.79846	290.05041	918.46794	416.36486	59.66315	938.36708	449.85668	198.19693	961.12289	206.60427	54.3962	968.01727	226.92591	244.49732	682.69791	221.9178	305.28732	439.0213	305.81491	265.46366	305.74932	172.98761	253.46201	262.38134	-29.59553	201.14195	304.6335	-59.15369	205.90076	88.28069	-5.44764	12.94159	663.04909	328.16944	45.63011	460.33379	488.17944	120.53636	280.51153	512.38312	84.79579	74.09508	443.97793	138.41722	82.48227	384.47941	129.45917	52.00128	611.5271
103	3.89	252.46428	1658.33923	465.99895	68.44476	1653.70026	454.00402	269.14377	1621.92184	342.93526	66.09145	1629.2952	340.85098	233.15763	1387.75558	465.91625	110.54184	1380.9082	466.39442	238.72997	1453.11066	318.68189	84.79765	1448.24524	332.01008	159.21755	1292.59552	242.39214	182.20716	1318.30536	501.9381	184.23084	1216.37741	521.83876	359.73595	1400.53802	385.1741	420.71724	1175.50217	375.35511	439.72851	1093.91029	334.02893	463.51662	982.58438	384.44988	412.61284	877.5499	487.81609	447.68063	852.69157	418.28289	463.40446	823.30116	483.57098	-20.64294	1381.76483	412.75928	-85.88767	1211.57471	357.7578	-107.2196	1094.96521	341.03077	-123.6957	957.61459	366.69136	-61.95167	849.8983	461.08746	-130.68052	837.62642	411.44169	-122.01143	800.60646	475.2729	288.6882	927.24365	460.79868	57.90765	944.8597	493.27686	198.95403	968.32184	250.82687	55.1622	977.89963	271.07029	243.9304	682.85828	287.47644	315.55731	448.51944	398.91087	271.03552	316.33932	265.96004	253.5178	276.45111	63.07229	198.74201	316.91395	35.00829	218.8238	101.60249	92.3792	12.70283	671.75148	356.14285	44.29977	459.54102	502.30221	117.4918	278.36452	520.96031	84.93587	75.087	444.08836	139.0029	83.9924	384.57001	130.30184	51.16282	611.87599
104	3.923	252.91086	1665.80109	510.1099	68.89232	1660.37903	499.20509	268.96008	1630.39902	386.60591	65.86627	1636.79642	385.89851	235.45187	1395.81406	506.99818	113.21527	1389.29306	510.65571	237.42413	1460.09552	360.51411	84.18016	1455.89005	376.521	156.30987	1299.86847	285.62189	185.35316	1326.84982	544.61311	187.49365	1224.99619	564.99233	360.87742	1408.43903	422.46559	420.37209	1182.75009	407.75928	436.28807	1101.30775	364.74239	460.45174	988.49144	411.33015	409.45087	879.56398	511.04385	444.78073	857.52144	440.5875	459.21215	825.03433	505.31723	-18.71187	1390.31128	460.34763	-86.49786	1219.22028	414.09927	-109.52894	1102.37915	402.29992	-124.94553	966.49872	436.42288	-59.50305	864.96353	535.22728	-129.81339	849.35333	488.56766	-118.98941	816.81015	554.6545	286.91832	937.35855	506.13503	54.81895	950.45425	535.49419	200.59591	977.70882	295.60928	56.77731	986.48903	313.84113	250.32772	688.45329	346.56517	323.01479	463.30036	486.26827	277.86682	323.44727	363.54515	253.88052	270.84646	163.78136	196.16474	306.64635	134.9741	230.76208	100.66942	211.35046	13.03296	680.2124	381.46492	43.43919	458.54912	514.13918	116.72647	276.80655	525.97622	84.74992	75.05873	444.76925	138.44925	85.23542	385.14225	130.4518	50.48667	612.06909
